<svg width="26" height="32" viewBox="0 0 26 32" fill="none" xmlns="http://www.w3.org/2000/svg">
<path d="M25.6191 8.36062L17.1691 0.360615C16.9247 0.129231 16.5945 0 16.25 0H2.6C1.1635 0 0 1.10154 0 2.46154V29.5385C0 30.8985 1.1635 32 2.6 32H23.4C24.8365 32 26 30.8985 26 29.5385V9.23077C26 8.90462 25.8635 8.592 25.6191 8.36062ZM16.9 23.3846H6.5C5.7824 23.3846 5.2 22.8332 5.2 22.1538C5.2 21.4745 5.7824 20.9231 6.5 20.9231H16.9C17.6176 20.9231 18.2 21.4745 18.2 22.1538C18.2 22.8332 17.6176 23.3846 16.9 23.3846ZM19.5 18.4615H6.5C5.7824 18.4615 5.2 17.9102 5.2 17.2308C5.2 16.5514 5.7824 16 6.5 16H19.5C20.2176 16 20.8 16.5514 20.8 17.2308C20.8 17.9102 20.2176 18.4615 19.5 18.4615ZM16.9 9.84615C16.1824 9.84615 15.6 9.29477 15.6 8.61538V2.34338L23.5248 9.84615H16.9Z" fill="white"/>
</svg>
