<svg width="40" height="40" viewBox="0 0 40 40" fill="none" xmlns="http://www.w3.org/2000/svg">
<g clip-path="url(#clip0_201_2)">
<path d="M20 23.8095C22.104 23.8095 23.8095 22.1039 23.8095 20C23.8095 17.8961 22.104 16.1905 20 16.1905C17.8961 16.1905 16.1905 17.8961 16.1905 20C16.1905 22.1039 17.8961 23.8095 20 23.8095Z" fill="white"/>
<path d="M20 28.5714C30.5197 28.5714 39.0476 24.7339 39.0476 20C39.0476 15.2661 30.5197 11.4286 20 11.4286C9.4803 11.4286 0.952393 15.2661 0.952393 20C0.952393 24.7339 9.4803 28.5714 20 28.5714Z" stroke="white" stroke-width="1.90476"/>
<path d="M12.577 24.2857C17.8368 33.3961 25.4242 38.8627 29.5238 36.4957C33.6235 34.1288 32.683 24.8246 27.4231 15.7143C22.1632 6.60395 14.5759 1.13735 10.4762 3.50428C6.37657 5.87122 7.3171 15.1754 12.577 24.2857Z" stroke="white" stroke-width="1.90476"/>
<path d="M12.5769 15.7143C7.31709 24.8246 6.37656 34.1288 10.4762 36.4957C14.5759 38.8627 22.1632 33.3961 27.4231 24.2857C32.6829 15.1754 33.6235 5.87121 29.5238 3.50428C25.4242 1.13734 17.8368 6.60395 12.5769 15.7143Z" stroke="white" stroke-width="1.90476"/>
</g>
<defs>
<clipPath id="clip0_201_2">
<rect width="40" height="40" fill="white"/>
</clipPath>
</defs>
</svg>
