<svg width="33" height="33" viewBox="0 0 33 33" fill="none" xmlns="http://www.w3.org/2000/svg">
<path d="M28.7505 0.559998H4.36952C2.26666 0.559998 0.559998 2.26666 0.559998 4.36952V28.7505C0.559998 30.8533 2.26666 32.56 4.36952 32.56H28.7505C30.8533 32.56 32.56 30.8533 32.56 28.7505V4.36952C32.56 2.26666 30.8533 0.559998 28.7505 0.559998ZM10.4648 12.7505V27.2267H5.89333V12.7505H10.4648ZM5.89333 8.53714C5.89333 7.47047 6.80762 6.65524 8.17905 6.65524C9.55047 6.65524 10.4114 7.47047 10.4648 8.53714C10.4648 9.60381 9.61143 10.4648 8.17905 10.4648C6.80762 10.4648 5.89333 9.60381 5.89333 8.53714ZM27.2267 27.2267H22.6552C22.6552 27.2267 22.6552 20.1714 22.6552 19.6076C22.6552 18.0838 21.8933 16.56 19.9886 16.5295H19.9276C18.0838 16.5295 17.3219 18.099 17.3219 19.6076C17.3219 20.3009 17.3219 27.2267 17.3219 27.2267H12.7505V12.7505H17.3219V14.7009C17.3219 14.7009 18.7924 12.7505 21.7486 12.7505C24.7733 12.7505 27.2267 14.8305 27.2267 19.0438V27.2267Z" fill="white"/>
</svg>
