<svg width="55" height="37" viewBox="0 0 55 37" fill="none" xmlns="http://www.w3.org/2000/svg">
<circle cx="27.5" cy="20.5" r="16.5" fill="#EA9D42"/>
<ellipse cx="27.5001" cy="20.5" rx="26.5" ry="6.5" transform="rotate(-17 27.5001 20.5)" fill="#EFE163"/>
<path d="M43 15C38.5 17.5 35.8791 19.4501 27 21.5C25.2704 21.8993 24.2525 22.1431 23.6112 22.2964C21.9779 22.6871 22.7873 22.4914 20.5 22.7867C19.8211 22.8743 18.8694 23.0052 17.5 23.2075C16.5503 23.3478 15.3998 23.5225 14 23.7409C13.153 23.873 12.2797 24.011 11.2824 24.1702C9.5 16 14.7687 6.43136 23.6478 4.38145C32.527 2.33154 40.9501 6.12086 43 15Z" fill="#EA9D42"/>
</svg>
