<svg width="96" height="96" viewBox="0 0 96 96" fill="none" xmlns="http://www.w3.org/2000/svg">
<path d="M76.308 19.712C67.98 11.38 56.62 7.17601 44.692 8.13601C28.656 9.42401 14.6 20.576 9.896 35.96C6.536 46.952 7.948 58.428 13.42 67.908L8.236 85.12C7.74 86.772 9.24801 88.328 10.916 87.884L28.932 83.056C34.768 86.24 41.336 87.916 48.024 87.92H48.04C64.82 87.92 80.324 77.656 85.688 61.756C90.912 46.252 87.048 30.464 76.308 19.712ZM67.592 62.216C66.76 64.548 62.684 66.796 60.852 66.96C59.02 67.128 57.304 67.788 48.872 64.464C38.724 60.464 32.316 50.06 31.82 49.396C31.32 48.728 27.744 43.984 27.744 39.072C27.744 34.16 30.324 31.744 31.24 30.748C32.156 29.748 33.236 29.5 33.904 29.5C34.568 29.5 35.236 29.5 35.816 29.524C36.528 29.552 37.316 29.588 38.064 31.248C38.952 33.224 40.892 38.16 41.14 38.66C41.388 39.16 41.556 39.744 41.224 40.408C40.892 41.072 40.724 41.488 40.228 42.072C39.728 42.656 39.18 43.372 38.732 43.82C38.232 44.316 37.712 44.86 38.292 45.856C38.876 46.856 40.876 50.124 43.844 52.768C47.66 56.168 50.872 57.22 51.872 57.724C52.872 58.224 53.452 58.14 54.036 57.472C54.62 56.808 56.532 54.56 57.196 53.56C57.86 52.56 58.528 52.728 59.444 53.06C60.36 53.392 65.268 55.808 66.264 56.308C67.264 56.808 67.928 57.056 68.176 57.472C68.424 57.884 68.424 59.884 67.592 62.216Z" fill="white"/>
</svg>
